HIERARCHY
ROOT Hips
{
	OFFSET 0.000000 83.214638 0.000000
	CHANNELS 6 Xposition Yposition Zposition Xrotation Yrotation Zrotation
	JOINT Pelvis
	{
		OFFSET 0.000000 0.000000 0.000000
		CHANNELS 3 Xrotation Yrotation Zrotation
		JOINT LeftUpLeg
		{
			OFFSET 8.479700 -4.795502 -0.379100
			CHANNELS 3 Xrotation Yrotation Zrotation
			JOINT LeftLeg
			{
				OFFSET 0.024144 -32.555107 0.112900
				CHANNELS 3 Xrotation Yrotation Zrotation
				JOINT LeftFoot
				{
					OFFSET -0.024144 -32.638630 -3.012600
					CHANNELS 3 Xrotation Yrotation Zrotation
					JOINT LeftToeBase
					{
						OFFSET 0.970200 -13.225400 11.864200
						CHANNELS 3 Xrotation Yrotation Zrotation
						End Site
						{
							OFFSET 0.000000 12.319262 0.000000
						}
					}
					JOINT LFootTongue
					{
						OFFSET 1.142400 -1.059800 6.665200
						CHANNELS 3 Xrotation Yrotation Zrotation
						End Site
						{
							OFFSET 0.000000 12.319262 0.000000
						}
					}
				}
				JOINT LeftPantLeg
				{
					OFFSET 0.918482 -16.533964 -2.284700
					CHANNELS 3 Xrotation Yrotation Zrotation
					End Site
					{
						OFFSET 0.350399 24.744368 0.000000
					}
				}
			}
		}
		JOINT RightUpLeg
		{
			OFFSET -8.479700 -4.795502 -0.379100
			CHANNELS 3 Xrotation Yrotation Zrotation
			JOINT RightLeg
			{
				OFFSET -0.023144 -32.555092 0.112900
				CHANNELS 3 Xrotation Yrotation Zrotation
				JOINT RightFoot
				{
					OFFSET 0.023144 -32.638641 -3.012700
					CHANNELS 3 Xrotation Yrotation Zrotation
					JOINT RightToeBase
					{
						OFFSET -0.970200 -13.225400 11.864200
						CHANNELS 3 Xrotation Yrotation Zrotation
						End Site
						{
							OFFSET 0.000000 12.319244 0.000000
						}
					}
					JOINT RFootTongue
					{
						OFFSET -1.142200 -1.059800 6.665200
						CHANNELS 3 Xrotation Yrotation Zrotation
						End Site
						{
							OFFSET 0.000000 12.319243 0.000000
						}
					}
				}
				JOINT RightPantLeg
				{
					OFFSET -0.919482 -16.533978 -2.284800
					CHANNELS 3 Xrotation Yrotation Zrotation
					End Site
					{
						OFFSET -0.350400 24.744419 0.000000
					}
				}
			}
		}
	}
	JOINT Spine
	{
		OFFSET 0.000000 7.722000 1.166200
		CHANNELS 3 Xrotation Yrotation Zrotation
		JOINT Spine1
		{
			OFFSET 0.000000 12.024101 0.248800
			CHANNELS 3 Xrotation Yrotation Zrotation
			JOINT Spine2
			{
				OFFSET 0.000000 11.502998 -0.491200
				CHANNELS 3 Xrotation Yrotation Zrotation
				JOINT Neck
				{
					OFFSET 0.000000 18.430702 -3.123100
					CHANNELS 3 Xrotation Yrotation Zrotation
					JOINT Head
					{
						OFFSET 0.000000 9.051102 1.034000
						CHANNELS 3 Xrotation Yrotation Zrotation
						JOINT HairB
						{
							OFFSET 0.208400 24.786102 24.822300
							CHANNELS 3 Xrotation Yrotation Zrotation
							End Site
							{
								OFFSET 0.000000 32.263779 0.000000
							}
						}
						JOINT HairA
						{
							OFFSET -7.081100 24.428299 23.196600
							CHANNELS 3 Xrotation Yrotation Zrotation
							End Site
							{
								OFFSET 0.000000 32.263779 0.000000
							}
						}
						JOINT Hat
						{
							OFFSET 16.728800 15.048294 -15.439601
							CHANNELS 3 Xrotation Yrotation Zrotation
							End Site
							{
								OFFSET 0.000000 32.263779 0.000000
							}
						}
					}
				}
				JOINT LeftShoulder
				{
					OFFSET 6.197800 13.665199 -4.064700
					CHANNELS 3 Xrotation Yrotation Zrotation
					JOINT LeftArm
					{
						OFFSET 7.778100 -0.187103 -1.709300
						CHANNELS 3 Xrotation Yrotation Zrotation
						JOINT LeftForeArm
						{
							OFFSET 22.049376 0.000000 0.000000
							CHANNELS 3 Xrotation Yrotation Zrotation
							JOINT LeftHand
							{
								OFFSET 23.009392 0.000000 0.000000
								CHANNELS 3 Xrotation Yrotation Zrotation
								JOINT LeftHandThumb1
								{
									OFFSET 3.507191 -2.063065 3.133727
									CHANNELS 3 Xrotation Yrotation Zrotation
									JOINT LeftHandThumb2
									{
										OFFSET 3.101337 -1.790558 1.790558
										CHANNELS 3 Xrotation Yrotation Zrotation
										JOINT LeftHandThumb3
										{
											OFFSET 3.058640 -1.765907 1.765906
											CHANNELS 3 Xrotation Yrotation Zrotation
											End Site
											{
												OFFSET -0.415260 3.926476 -0.049563
											}
										}
									}
								}
								JOINT LeftHandIndex1
								{
									OFFSET 11.334419 -0.901459 3.706815
									CHANNELS 3 Xrotation Yrotation Zrotation
									JOINT LeftHandIndex2
									{
										OFFSET 3.283112 0.000000 0.000000
										CHANNELS 3 Xrotation Yrotation Zrotation
										JOINT LeftHandIndex3
										{
											OFFSET 3.323853 0.000000 0.000000
											CHANNELS 3 Xrotation Yrotation Zrotation
											End Site
											{
												OFFSET -1.135597 3.097809 0.402452
											}
										}
									}
								}
								JOINT LeftHandMiddle1
								{
									OFFSET 11.335861 0.000000 0.000000
									CHANNELS 3 Xrotation Yrotation Zrotation
									JOINT LeftHandMiddle2
									{
										OFFSET 3.410492 0.000000 0.000000
										CHANNELS 3 Xrotation Yrotation Zrotation
										JOINT LeftHandMiddle3
										{
											OFFSET 3.312172 0.000000 0.000000
											CHANNELS 3 Xrotation Yrotation Zrotation
											End Site
											{
												OFFSET -1.150200 3.080154 0.400270
											}
										}
									}
								}
								JOINT LeftHandRing1
								{
									OFFSET 11.514786 -0.013176 -3.003090
									CHANNELS 3 Xrotation Yrotation Zrotation
									JOINT LeftHandRing2
									{
										OFFSET 3.053307 0.000000 0.000000
										CHANNELS 3 Xrotation Yrotation Zrotation
										JOINT LeftHandRing3
										{
											OFFSET 3.295807 0.000000 0.000000
											CHANNELS 3 Xrotation Yrotation Zrotation
											End Site
											{
												OFFSET -1.281006 3.013344 0.375733
											}
										}
									}
								}
								JOINT LeftHandPinky1
								{
									OFFSET 10.518692 -0.960396 -5.730441
									CHANNELS 3 Xrotation Yrotation Zrotation
									JOINT LeftHandPinky2
									{
										OFFSET 2.861649 0.000000 0.000000
										CHANNELS 3 Xrotation Yrotation Zrotation
										JOINT LeftHandPinky3
										{
											OFFSET 2.863380 0.000000 0.000000
											CHANNELS 3 Xrotation Yrotation Zrotation
											End Site
											{
												OFFSET -0.843597 2.711159 0.369971
											}
										}
									}
								}
							}
							JOINT LSleeve
							{
								OFFSET 6.676277 -0.344902 -1.011730
								CHANNELS 3 Xrotation Yrotation Zrotation
								End Site
								{
									OFFSET 0.000000 14.885353 0.000000
								}
							}
						}
					}
				}
				JOINT RightShoulder
				{
					OFFSET -6.197800 13.665199 -4.064700
					CHANNELS 3 Xrotation Yrotation Zrotation
					JOINT RightArm
					{
						OFFSET -7.778100 -0.187103 -1.709300
						CHANNELS 3 Xrotation Yrotation Zrotation
						JOINT RightForeArm
						{
							OFFSET -22.049376 0.000000 0.000000
							CHANNELS 3 Xrotation Yrotation Zrotation
							JOINT RightHand
							{
								OFFSET -23.009392 0.000000 0.000000
								CHANNELS 3 Xrotation Yrotation Zrotation
								JOINT RightHandThumb1
								{
									OFFSET -3.507191 -2.063065 3.133727
									CHANNELS 3 Xrotation Yrotation Zrotation
									JOINT RightHandThumb2
									{
										OFFSET -3.101337 -1.790558 1.790558
										CHANNELS 3 Xrotation Yrotation Zrotation
										JOINT RightHandThumb3
										{
											OFFSET -3.058640 -1.765907 1.765906
											CHANNELS 3 Xrotation Yrotation Zrotation
											End Site
											{
												OFFSET 0.415260 3.926476 -0.049563
											}
										}
									}
								}
								JOINT RightHandIndex1
								{
									OFFSET -11.334419 -0.901459 3.706815
									CHANNELS 3 Xrotation Yrotation Zrotation
									JOINT RightHandIndex2
									{
										OFFSET -3.283112 0.000000 0.000000
										CHANNELS 3 Xrotation Yrotation Zrotation
										JOINT RightHandIndex3
										{
											OFFSET -3.323853 0.000000 0.000000
											CHANNELS 3 Xrotation Yrotation Zrotation
											End Site
											{
												OFFSET 1.135597 3.097809 0.402452
											}
										}
									}
								}
								JOINT RightHandMiddle1
								{
									OFFSET -11.335861 0.000000 0.000000
									CHANNELS 3 Xrotation Yrotation Zrotation
									JOINT RightHandMiddle2
									{
										OFFSET -3.410492 0.000000 0.000000
										CHANNELS 3 Xrotation Yrotation Zrotation
										JOINT RightHandMiddle3
										{
											OFFSET -3.312172 0.000000 0.000000
											CHANNELS 3 Xrotation Yrotation Zrotation
											End Site
											{
												OFFSET 1.150200 3.080154 0.400270
											}
										}
									}
								}
								JOINT RightHandRing1
								{
									OFFSET -11.514786 -0.013176 -3.003090
									CHANNELS 3 Xrotation Yrotation Zrotation
									JOINT RightHandRing2
									{
										OFFSET -3.053307 0.000000 0.000000
										CHANNELS 3 Xrotation Yrotation Zrotation
										JOINT RightHandRing3
										{
											OFFSET -3.295807 0.000000 0.000000
											CHANNELS 3 Xrotation Yrotation Zrotation
											End Site
											{
												OFFSET 1.281006 3.013344 0.375733
											}
										}
									}
								}
								JOINT RightHandPinky1
								{
									OFFSET -10.518692 -0.960396 -5.730441
									CHANNELS 3 Xrotation Yrotation Zrotation
									JOINT RightHandPinky2
									{
										OFFSET -2.861649 0.000000 0.000000
										CHANNELS 3 Xrotation Yrotation Zrotation
										JOINT RightHandPinky3
										{
											OFFSET -2.863380 0.000000 0.000000
											CHANNELS 3 Xrotation Yrotation Zrotation
											End Site
											{
												OFFSET 0.843597 2.711159 0.369971
											}
										}
									}
								}
							}
							JOINT RSleeve
							{
								OFFSET -6.676277 -0.344902 -1.011730
								CHANNELS 3 Xrotation Yrotation Zrotation
								End Site
								{
									OFFSET 0.000000 14.885353 0.000000
								}
							}
						}
					}
				}
				JOINT Backpack
				{
					OFFSET 0.000000 -2.471497 36.677502
					CHANNELS 3 Xrotation Yrotation Zrotation
					End Site
					{
						OFFSET 0.000000 20.427315 0.000000
					}
				}
				JOINT Hood
				{
					OFFSET 0.000000 18.754097 -10.431000
					CHANNELS 3 Xrotation Yrotation Zrotation
					JOINT Hood1
					{
						OFFSET 0.000000 -5.011002 -7.685901
						CHANNELS 3 Xrotation Yrotation Zrotation
						End Site
						{
							OFFSET 0.000000 9.175140 0.000000
						}
					}
				}
				JOINT LHoodieString
				{
					OFFSET 5.250500 16.397697 3.089900
					CHANNELS 3 Xrotation Yrotation Zrotation
					JOINT LHoodieString1
					{
						OFFSET 0.257700 -6.364304 3.694600
						CHANNELS 3 Xrotation Yrotation Zrotation
						JOINT LHoodieString2
						{
							OFFSET 0.000000 -9.643799 2.679100
							CHANNELS 3 Xrotation Yrotation Zrotation
							End Site
							{
								OFFSET 0.000000 10.009018 0.000000
							}
						}
					}
				}
				JOINT RHoodieString
				{
					OFFSET -5.250500 16.397697 3.089900
					CHANNELS 3 Xrotation Yrotation Zrotation
					JOINT RHoodieString1
					{
						OFFSET -0.257700 -6.364304 3.694600
						CHANNELS 3 Xrotation Yrotation Zrotation
						JOINT RHoodieString2
						{
							OFFSET 0.000000 -9.643799 2.679100
							CHANNELS 3 Xrotation Yrotation Zrotation
							End Site
							{
								OFFSET 0.000000 10.009018 0.000000
							}
						}
					}
				}
			}
			JOINT LBackpack_Strap
			{
				OFFSET 15.223200 -7.719803 -6.610900
				CHANNELS 3 Xrotation Yrotation Zrotation
				End Site
				{
					OFFSET 0.000000 16.040596 0.000000
				}
			}
			JOINT RBackpack_Strap
			{
				OFFSET -15.223000 -7.719803 -6.610900
				CHANNELS 3 Xrotation Yrotation Zrotation
				End Site
				{
					OFFSET 0.000000 16.040596 0.000000
				}
			}
		}
	}
	JOINT BoyFacialAnim_Joint
	{
		OFFSET 1.000000 -82.208099 -1.550900
		CHANNELS 3 Xrotation Yrotation Zrotation
		End Site
		{
			OFFSET 0.000000 30.012791 0.000000
		}
	}
}
MOTION
Frames: 4
Frame Time: 0.016667
-5.530898 78.117332 68.106438 23.434176 13.192125 -8.463684 -0.000001 -0.000001 -0.000000 -35.274345 -2.560096 -6.400703 34.249243 -4.588397 -3.212961 -21.592818 2.448202 10.901133 0.000000 0.000001 0.000000 0.000000 0.000001 0.000000 0.000001 -0.000000 0.000002 -56.916130 -6.243514 -13.390267 53.391800 -6.968455 0.696621 9.703437 -4.309234 16.432646 0.000001 0.000002 -0.000001 0.000001 0.000002 -0.000001 -0.000002 -0.000000 0.000001 9.549693 1.165599 -1.806345 -0.471733 1.782880 -0.358115 -0.315421 2.367529 -0.492587 -11.049973 -0.300767 0.541616 -9.090198 2.277659 -2.833871 0.000001 -0.000001 -0.000000 0.000001 -0.000001 -0.000000 0.000001 -0.000001 -0.000000 0.804519 -1.055560 -19.731168 11.314142 -4.215692 -51.272553 -0.000004 -61.671786 0.000002 -22.443214 13.772011 -17.933502 74.823971 -40.508086 61.030247 25.606323 5.176746 -82.902234 -0.000002 0.000002 0.000002 5.901629 7.863777 -80.435511 5.375083 5.831745 -85.325708 -0.000001 0.000000 -0.000000 5.020594 8.216399 -91.029387 4.694993 5.736110 -78.585083 0.000001 0.000000 0.000000 4.404990 8.246837 -91.688405 5.835737 5.851049 -89.849759 -0.000000 0.000000 -0.000000 5.249078 8.404171 -99.924636 2.493733 4.794761 -54.937564 0.000002 0.000001 0.000002 -0.000000 -0.000000 0.000000 0.318338 6.828682 17.985684 14.222249 -10.989038 46.953849 0.000007 67.377794 0.000018 -3.079470 -19.120698 7.109479 47.809740 35.835393 -5.333800 34.631354 -33.014491 35.094605 0.000000 -0.000000 0.000001 6.363581 -7.114845 84.445126 4.420406 -4.651165 87.082487 -0.000001 -0.000000 0.000003 7.913297 -6.614873 96.213494 4.359615 -4.647671 86.332683 -0.000000 0.000000 -0.000000 5.619624 -6.842402 101.279964 3.622428 -4.541017 77.149111 -0.000001 -0.000002 -0.000002 5.448556 -6.873452 99.955201 1.714562 -3.611358 50.782508 -0.000000 0.000002 0.000001 -0.000000 -0.000002 0.000001 -0.000000 0.000001 0.000001 -0.000000 0.000001 0.000001 -0.000000 0.000001 0.000001 -0.000000 0.000001 0.000001 -0.000000 0.000001 0.000001 -0.000000 0.000001 -0.000000 -0.000000 0.000001 0.000001 -0.000000 0.000001 0.000001 -0.000000 0.000001 -0.000000 0.000001 -0.000001 0.000001 0.000001 -0.000001 0.000001 -0.000001 -0.000001 -0.000000 
-5.471062 78.088272 70.093910 23.699831 13.839758 -8.745804 0.000001 0.000000 -0.000001 -33.355963 -4.214564 -6.171592 33.323229 -3.520706 -3.503527 -22.809644 1.877331 10.370529 -0.000000 -0.000000 0.000000 -0.000000 -0.000000 -0.000000 0.000000 0.000000 0.000000 -58.466494 -5.925509 -13.476195 50.326497 -6.967471 0.409075 9.801549 -5.468824 15.461318 0.000000 -0.000001 0.000000 0.000000 -0.000001 0.000000 -0.000001 -0.000000 -0.000000 9.417269 0.835426 -1.667402 -0.422851 1.770879 -0.370541 -0.273306 2.351417 -0.497367 -11.032308 -0.263010 0.489893 -9.196466 2.170661 -2.889697 0.000000 -0.000002 -0.000000 0.000000 -0.000002 -0.000000 0.000000 -0.000002 -0.000000 0.828891 -1.055384 -19.581369 11.301115 -4.179482 -51.475171 0.000021 -61.665509 0.000045 -22.424840 13.662197 -18.020841 74.823978 -40.508086 61.030247 25.831941 5.594298 -83.199081 -0.000002 0.000004 0.000000 5.804532 7.842047 -80.834428 5.406405 5.834217 -85.633954 -0.000001 -0.000000 -0.000000 5.050373 8.220840 -91.320319 4.691307 5.735371 -78.548152 0.000001 0.000000 -0.000002 4.420651 8.250798 -91.840616 5.847097 5.851065 -89.961234 0.000001 0.000000 -0.000002 5.222583 8.401198 -99.673606 2.447235 4.761899 -54.379326 -0.000001 -0.000000 0.000001 -0.000000 0.000001 -0.000000 0.322455 6.792932 17.816154 14.532754 -11.075071 47.066021 0.000008 67.339620 0.000007 -3.353853 -18.746255 7.238115 47.809729 35.835387 -5.333800 34.631354 -33.014491 35.094605 -0.000001 -0.000002 0.000001 6.478009 -7.129520 84.356805 4.420364 -4.651155 87.082057 -0.000001 -0.000001 0.000002 7.925228 -6.629806 95.875598 4.359713 -4.647682 86.333974 0.000000 0.000000 0.000003 5.608983 -6.844493 101.146489 3.622724 -4.541080 77.152751 -0.000003 -0.000002 0.000004 5.470966 -6.869672 100.094790 1.712311 -3.609507 50.746851 -0.000002 -0.000000 -0.000001 0.000002 -0.000000 0.000001 -0.000001 0.000000 -0.000001 -0.000001 0.000000 -0.000001 -0.000001 0.000000 -0.000001 -0.000001 0.000000 -0.000001 -0.000001 0.000000 -0.000000 -0.000003 -0.000001 0.000001 -0.000001 0.000000 -0.000001 -0.000001 0.000000 -0.000000 -0.000003 -0.000001 0.000001 -0.000001 -0.000002 0.000001 -0.000001 -0.000002 0.000001 0.000001 0.000000 -0.000001 
-5.420403 77.967590 72.089149 23.965419 14.361122 -8.935855 0.000000 0.000000 -0.000000 -31.439648 -5.523949 -5.897655 32.506380 -2.364940 -3.688070 -24.103770 1.101472 9.763335 -0.000000 -0.000001 0.000000 -0.000000 -0.000001 -0.000000 -0.000001 -0.000000 0.000002 -60.400039 -5.271778 -13.473646 47.286523 -6.481793 0.313755 10.399739 -6.764945 14.870503 -0.000001 -0.000000 0.000000 -0.000001 -0.000000 0.000000 -0.000001 -0.000000 -0.000001 9.242964 0.495209 -1.635967 -0.374504 1.775979 -0.381387 -0.232032 2.353974 -0.505842 -11.041554 -0.226224 0.447396 -9.369439 2.134338 -2.939961 -0.000000 -0.000002 0.000001 -0.000000 -0.000002 0.000001 -0.000000 -0.000002 0.000001 0.850975 -1.055168 -19.445709 11.378946 -4.063368 -51.572621 0.000001 -61.739603 -0.000006 -22.565932 13.410601 -18.078263 74.823978 -40.508076 61.030247 25.822085 5.576440 -83.186861 0.000002 -0.000001 -0.000000 5.795715 7.839601 -80.912572 5.409769 5.834471 -85.666951 0.000001 0.000000 -0.000002 5.057599 8.221895 -91.390882 4.690765 5.735263 -78.542743 0.000003 0.000001 -0.000001 4.426186 8.252183 -91.894431 5.849535 5.851069 -89.985065 -0.000002 -0.000000 -0.000002 5.222011 8.401133 -99.668135 2.445862 4.760915 -54.362777 0.000002 0.000000 0.000001 -0.000000 0.000000 0.000001 0.330585 6.717010 17.586537 14.906741 -11.096839 47.280731 -0.000018 67.421166 0.000027 -3.553423 -18.321006 7.173619 47.809736 35.835397 -5.333798 34.631354 -33.014488 35.094605 -0.000001 0.000001 -0.000001 6.464561 -7.132966 84.233854 4.420348 -4.651178 87.081777 -0.000004 -0.000003 0.000003 7.910792 -6.635669 95.783738 4.359826 -4.647692 86.335230 -0.000002 -0.000000 -0.000000 5.607734 -6.844740 101.131039 3.623022 -4.541156 77.156453 0.000003 -0.000000 0.000000 5.469699 -6.869893 100.086409 1.712260 -3.609477 50.745946 0.000002 0.000002 -0.000005 0.000001 -0.000001 0.000001 0.000001 -0.000001 -0.000001 0.000001 -0.000001 -0.000001 0.000001 -0.000001 -0.000001 0.000001 -0.000001 -0.000001 0.000001 -0.000001 -0.000000 0.000001 0.000001 -0.000000 0.000001 -0.000001 -0.000001 0.000001 -0.000001 -0.000000 0.000001 0.000001 -0.000000 0.000002 -0.000000 0.000000 0.000002 -0.000000 0.000000 0.000000 0.000000 -0.000000 
-5.385697 77.689499 74.170120 24.141628 14.804140 -8.937154 0.000001 -0.000000 0.000001 -29.480200 -6.637717 -5.731726 31.998582 -1.169123 -3.770342 -25.689730 0.323909 9.099485 -0.000000 0.000001 0.000000 -0.000000 0.000001 -0.000000 0.000000 0.000002 0.000001 -62.461902 -3.925492 -13.310539 44.405939 -8.169794 -0.094605 11.814656 -5.589576 15.117862 0.000001 0.000000 -0.000000 0.000001 0.000000 -0.000000 0.000000 0.000000 -0.000001 9.053675 0.145818 -1.835631 -0.327082 1.791587 -0.387871 -0.191797 2.389390 -0.519249 -11.094802 -0.194234 0.432493 -9.618915 2.159156 -3.032441 0.000001 0.000002 -0.000000 0.000001 0.000002 -0.000000 0.000001 0.000002 -0.000000 0.870928 -1.054920 -19.323107 11.546881 -4.117306 -51.490908 0.000008 -61.781417 0.000005 -22.780959 13.089982 -18.094645 74.823978 -40.508083 61.030247 25.742807 5.432226 -83.085474 -0.000002 -0.000005 -0.000001 5.812370 7.842462 -80.897266 5.404976 5.834109 -85.619864 -0.000003 0.000001 -0.000002 5.058251 8.221995 -91.397213 4.690544 5.735218 -78.540461 0.000001 0.000000 -0.000002 4.428773 8.252839 -91.919477 5.849362 5.851068 -89.983419 -0.000002 0.000001 -0.000000 5.228962 8.401928 -99.733992 2.457547 4.769252 -54.503537 0.000001 -0.000001 0.000001 -0.000000 0.000002 0.000000 0.359532 6.327639 17.328659 15.284191 -11.054881 47.591180 -0.000001 67.686983 -0.000002 -3.676067 -17.827376 7.043239 47.809740 35.835393 -5.333800 34.631354 -33.014491 35.094601 -0.000002 0.000001 -0.000000 6.413959 -7.132887 84.101287 4.420325 -4.651166 87.081551 0.000003 -0.000004 0.000005 7.888763 -6.638802 95.763637 4.359918 -4.647705 86.336323 -0.000001 0.000001 0.000000 5.609242 -6.844440 101.149904 3.623307 -4.541220 77.160169 -0.000001 -0.000002 0.000002 5.460048 -6.871531 100.035087 1.712827 -3.609933 50.755081 -0.000004 -0.000001 0.000002 -0.000002 -0.000000 -0.000000 0.000002 -0.000002 0.000001 0.000002 -0.000002 0.000001 0.000002 -0.000002 0.000001 0.000002 -0.000002 0.000001 0.000002 -0.000002 0.000001 0.000002 0.000001 -0.000000 0.000002 -0.000002 0.000001 0.000002 -0.000002 0.000001 0.000002 0.000001 -0.000000 -0.000000 -0.000001 0.000000 -0.000000 -0.000001 0.000000 0.000001 -0.000000 0.000001 
